<?xml version="1.0" encoding="utf-8"?>
<!-- Generator: Adobe Illustrator 26.3.1, SVG Export Plug-In . SVG Version: 6.00 Build 0)  -->
<svg version="1.1" id="Capa_1" xmlns="http://www.w3.org/2000/svg" xmlns:xlink="http://www.w3.org/1999/xlink" x="0px" y="0px"
	 viewBox="0 0 773 328" style="enable-background:new 0 0 773 328;" xml:space="preserve">
<style type="text/css">
	.st0{fill:#2E3191;}
	.st1{fill:#0E6948;}
</style>
<g>
	<g id="XMLID_00000002372787398980001280000011142775930139324347_">
		<g>
			<path d="M770.86,1.06c1-0.46,1.95-0.82,1.89,0.91c-33.32,4.55-64.93,14.83-95.47,28.63c-43.31,19.58-82.39,45.74-118.53,76.42
				c-2.89,2.45-4.53,2.87-7.71,0.29c-10.8-8.77-22.11-16.89-34.05-24.7c22.41-14.66,45.75-26.52,69.88-36.86
				c55.37-23.72,113-38.56,173.06-43.77C763.58,1.66,767.22,1.37,770.86,1.06z"/>
			<path d="M431.96,236.3c7.47-15.73,9.97-31.81,10.49-48.26c0.46-14.31-0.39-28.58-3.12-42.66c-0.47-2.46,0.49-3.71,1.99-5.1
				c14.16-13.11,29.26-25.09,44.66-36.7c1.72-1.29,2.9-1.41,4.76-0.22c12.91,8.29,22.69,19.28,29.4,33.07
				c1.2,2.46,1.07,3.96-0.92,6.03c-28.23,29.34-55.64,59.43-82.45,90.08C435.62,233.86,434.72,235.57,431.96,236.3z"/>
			<path d="M406.49,97.45c27.63,33.99,34.26,72.52,23.95,114.47c-8.2,33.41-24.62,62.89-44.06,90.87
				c-5.31,7.65-11.01,15.02-16.54,22.52c-1.2,1.63-2.46,2.76-4.85,2.76c-48.31-0.1-96.62-0.09-144.94-0.12
				c-0.26,0-0.52-0.27-1.06-0.56c7.25-7.54,14.61-14.87,21.61-22.53c30.42-33.31,57.46-68.96,75.82-110.53
				c8.65-19.59,14.66-39.95,15.38-61.49c1.22-36.22-13.6-65.05-41.52-87.48c-24.52-19.71-53.09-31.19-82.84-40.19
				c-3.93-1.18-7.89-2.24-11.84-3.35c9.98,0.07,19.7,2.24,29.42,4.32c38.61,8.28,76.09,19.91,111.41,37.84
				C363.06,57.51,387.46,74.05,406.49,97.45z"/>
			<path class="st0" d="M382.06,50.04c49.04,6.69,96.99,16.99,139.6,43.96c19.75,12.49,35.91,28.41,45.72,50.13
				c5.28,11.67,5.98,23.96,6.45,36.48c1.38,37.57,18.08,67.86,45.54,92.62c28.74,25.92,62.92,41.74,99.7,52.52
				c1.7,0.5,3.4,0.98,4.99,2.25c-1.55,0-3.11,0-4.66,0c-32.15,0-64.29-0.03-96.44,0.05c-3.28,0.01-6.18-0.72-9.09-2.11
				c-45.58-21.83-72.76-57.28-79.57-107.67c-1.9-14.06-1.67-28.15,0.39-42.26c3.56-24.37-5-44.74-21.58-62.17
				c-18.85-19.83-42.48-32.27-67.36-42.58c-21.22-8.8-43.15-15.41-65.61-20.29C380.08,49.23,381.02,49.52,382.06,50.04z"/>
			<path class="st1" d="M-0.34,327.33c14.21-8.53,28.52-16.83,42.54-25.6c49.14-30.74,96.58-63.82,138.69-103.93
				c21.88-20.84,42.05-43.14,55.63-70.53c7.9-15.95,12.42-32.69,8.95-50.62c-4.03-20.82-17.49-35.01-34.25-46.53
				c-20.08-13.81-42.68-22.03-65.83-28.94c-0.45-0.13-0.88-0.33-1.28-0.76c9.24,0.32,18.29,1.95,27.29,3.82
				c30.64,6.35,60.08,15.84,86.27,33.57c21.47,14.54,37.56,33.26,43.89,58.99c5.35,21.8,2.65,43.26-4.15,64.34
				c-10.7,33.18-29.16,62.09-49.96,89.66c-19.97,26.48-42.25,50.95-65.6,74.47c-1.71,1.72-3.36,2.8-6,2.79
				c-57.97-0.08-115.93-0.06-173.89-0.08C1.22,327.98,0.33,328.34-0.34,327.33z"/>
		</g>
		<g>
		</g>
	</g>
</g>
</svg>
