<svg id="Capa_1" data-name="Capa 1" xmlns="http://www.w3.org/2000/svg" viewBox="0 0 773.6 328.14"><defs><style>.cls-1{fill:#fff;}.cls-2{fill:#cc8621;}.cls-3{fill:#0e6948;}</style></defs><path class="cls-1" d="M771.45.89c1-.46,1.95-.82,1.89.91C740,6.35,708.41,16.63,677.87,30.43,634.56,50,595.48,76.17,559.34,106.85c-2.89,2.45-4.53,2.87-7.71.29a408,408,0,0,0-34-24.7C540,67.78,563.33,55.92,587.46,45.58A559.85,559.85,0,0,1,760.52,1.81C764.17,1.49,767.81,1.2,771.45.89Z"/><path class="cls-2" d="M724.65,327.83H720q-48.22,0-96.44.05a20.33,20.33,0,0,1-9.09-2.11c-45.58-21.83-72.76-57.28-79.57-107.67a151.11,151.11,0,0,1,.39-42.26c3.56-24.37-5-44.74-21.58-62.17-18.85-19.83-42.48-32.27-67.36-42.58A383.15,383.15,0,0,0,380.73,50.8c-.06-1.74.88-1.45,1.92-.93,49,6.69,97,17,139.6,44C542,106.32,558.16,122.24,568,144c5.28,11.67,6,24,6.45,36.48C575.8,218,592.5,248.3,620,273.06c28.74,25.92,62.92,41.74,99.7,52.52A13.5,13.5,0,0,1,724.65,327.83Z"/><path class="cls-1" d="M520.73,136.26c1.2,2.46,1.07,4-.92,6q-42.34,44-82.45,90.08c-1.15,1.32-2.05,3-4.81,3.76,7.47-15.73,10-31.81,10.49-48.26a191.29,191.29,0,0,0-3.12-42.66c-.47-2.46.49-3.71,2-5.1a572.67,572.67,0,0,1,44.66-36.7c1.72-1.29,2.9-1.41,4.76-.22A80.3,80.3,0,0,1,520.73,136.26Z"/><path class="cls-1" d="M407.08,97.28c27.63,34,34.26,72.52,23.95,114.47-8.2,33.41-24.62,62.89-44.06,90.87-5.31,7.65-11,15-16.54,22.52-1.2,1.63-2.46,2.76-4.85,2.76q-72.46-.15-144.94-.12c-.26,0-.52-.27-1.06-.56,7.25-7.54,14.61-14.87,21.61-22.53,30.42-33.31,57.46-69,75.82-110.53,8.65-19.59,14.66-39.95,15.38-61.49,1.22-36.22-13.6-65-41.52-87.48C266.35,25.48,237.78,14,208,5c-3.93-1.18-7.89-2.24-11.84-3.35,10,.07,19.7,2.24,29.42,4.32C264.22,14.25,301.7,25.88,337,43.81,363.65,57.34,388.05,73.88,407.08,97.28Z"/><path class="cls-3" d="M302.15,96.63c5.35,21.8,2.65,43.26-4.15,64.34-10.7,33.18-29.16,62.09-50,89.66-20,26.48-42.25,50.95-65.6,74.47a7.81,7.81,0,0,1-6,2.79q-87-.12-173.89-.08c-.74,0-1.63.36-2.3-.65,14.21-8.53,28.52-16.83,42.54-25.6,49.14-30.74,96.58-63.82,138.69-103.93,21.88-20.84,42.05-43.14,55.63-70.53,7.9-15.95,12.42-32.69,8.95-50.62-4-20.82-17.49-35-34.25-46.53C191.73,16.14,169.13,7.92,146,1A2.65,2.65,0,0,1,144.7.25C153.94.57,163,2.2,172,4.07c30.64,6.35,60.08,15.84,86.27,33.57C279.73,52.18,295.82,70.9,302.15,96.63Z"/></svg>